<svg width="34" height="33" viewBox="0 0 34 33" fill="none" xmlns="http://www.w3.org/2000/svg">
<path d="M17 19C16.9694 18.4589 17.1153 17.9226 17.4159 17.4717C17.7165 17.0208 18.1555 16.6798 18.6667 16.5C19.2932 16.2604 19.8555 15.8787 20.3093 15.3849C20.7632 14.8911 21.0962 14.2987 21.2823 13.6543C21.4683 13.0099 21.5022 12.3311 21.3813 11.6714C21.2604 11.0117 20.988 10.3891 20.5856 9.85251C20.1832 9.31595 19.6617 8.88013 19.0622 8.57935C18.4627 8.27857 17.8016 8.12105 17.1309 8.11919C16.4602 8.11733 15.7983 8.27118 15.1971 8.56863C14.596 8.86608 14.0721 9.299 13.6667 9.83332M17 24.8333V24.85V24.8333ZM32 16.5C32 24.7843 25.2843 31.5 17 31.5C8.71573 31.5 2 24.7843 2 16.5C2 8.21573 8.71573 1.5 17 1.5C25.2843 1.5 32 8.21573 32 16.5Z" stroke="#232323" stroke-opacity="0.45" stroke-width="2.5" stroke-linecap="round" stroke-linejoin="round"/>
</svg>
