<svg width="33" height="33" viewBox="0 0 33 33" fill="none" xmlns="http://www.w3.org/2000/svg">
<path d="M11.5446 19.4464H3.50893C2.39943 19.4464 1.5 20.3459 1.5 21.4554V29.4911C1.5 30.6006 2.39943 31.5 3.50893 31.5H11.5446C12.6541 31.5 13.5536 30.6006 13.5536 29.4911V21.4554C13.5536 20.3459 12.6541 19.4464 11.5446 19.4464Z" stroke="#1F50FF" stroke-width="2.5" stroke-linecap="round" stroke-linejoin="round"/>
<path d="M29.4911 1.5H21.4554C20.3459 1.5 19.4465 2.39943 19.4465 3.50893V11.5446C19.4465 12.6541 20.3459 13.5536 21.4554 13.5536H29.4911C30.6006 13.5536 31.5 12.6541 31.5 11.5446V3.50893C31.5 2.39943 30.6006 1.5 29.4911 1.5Z" stroke="#1F50FF" stroke-width="2.5" stroke-linecap="round" stroke-linejoin="round"/>
<path d="M11.5446 1.5H3.50893C2.39943 1.5 1.5 2.39943 1.5 3.50893V11.5446C1.5 12.6541 2.39943 13.5536 3.50893 13.5536H11.5446C12.6541 13.5536 13.5536 12.6541 13.5536 11.5446V3.50893C13.5536 2.39943 12.6541 1.5 11.5446 1.5Z" stroke="#1F50FF" stroke-width="2.5" stroke-linecap="round" stroke-linejoin="round"/>
</svg>
