<svg width="34" height="30" viewBox="0 0 34 30" fill="none" xmlns="http://www.w3.org/2000/svg">
<path d="M22 26.8301V10.1634C22 9.24293 21.2538 8.49673 20.3333 8.49673H13.6667C12.7462 8.49673 12 9.24293 12 10.1634V26.8301M22 26.8301C22 27.7506 22.7462 28.4968 23.6667 28.4968M22 26.8301V3.49675C22 2.57627 22.7462 1.83008 23.6667 1.83008H30.3333C31.2538 1.83008 32 2.57627 32 3.49675V26.8301C32 27.7506 31.2538 28.4968 30.3333 28.4968H23.6667M22 26.8301C22 27.7506 21.2538 28.4967 20.3333 28.4967M20.3333 28.4967H13.6667M20.3333 28.4967L23.6667 28.4968M13.6667 28.4967C12.7462 28.4967 12 27.7506 12 26.8301M13.6667 28.4967H10.3333M12 26.8301L12 16.8301C12 15.9096 11.2538 15.1634 10.3333 15.1634H3.66667C2.74619 15.1634 2 15.9096 2 16.8301V26.8301C2 27.7506 2.74619 28.4967 3.66667 28.4967H10.3333M12 26.8301C12 27.7506 11.2538 28.4967 10.3333 28.4967" stroke="#3840F5" stroke-width="2.5" stroke-linecap="round" stroke-linejoin="round"/>
</svg>
