<svg width="33" height="30" viewBox="0 0 33 30" fill="none" xmlns="http://www.w3.org/2000/svg">
<path d="M21.5 26.3301V9.6634C21.5 8.74293 20.7538 7.99673 19.8333 7.99673H13.1667C12.2462 7.99673 11.5 8.74293 11.5 9.6634V26.3301M21.5 26.3301C21.5 27.2506 22.2462 27.9968 23.1667 27.9968M21.5 26.3301V2.99675C21.5 2.07627 22.2462 1.33008 23.1667 1.33008H29.8333C30.7538 1.33008 31.5 2.07627 31.5 2.99675V26.3301C31.5 27.2506 30.7538 27.9968 29.8333 27.9968H23.1667M21.5 26.3301C21.5 27.2506 20.7538 27.9967 19.8333 27.9967M19.8333 27.9967H13.1667M19.8333 27.9967L23.1667 27.9968M13.1667 27.9967C12.2462 27.9967 11.5 27.2506 11.5 26.3301M13.1667 27.9967H9.83334M11.5 26.3301L11.5 16.3301C11.5 15.4096 10.7538 14.6634 9.83334 14.6634H3.16667C2.24619 14.6634 1.5 15.4096 1.5 16.3301V26.3301C1.5 27.2506 2.24619 27.9967 3.16667 27.9967H9.83334M11.5 26.3301C11.5 27.2506 10.7538 27.9967 9.83334 27.9967" stroke="#232323" stroke-opacity="0.45" stroke-width="2.5" stroke-linecap="round" stroke-linejoin="round"/>
</svg>
